<?xml version="1.0" encoding="utf-8"?>
<!-- Generator: Adobe Illustrator 21.0.2, SVG Export Plug-In . SVG Version: 6.00 Build 0)  -->
<svg version="1.1" id="Layer_1" xmlns="http://www.w3.org/2000/svg" xmlns:xlink="http://www.w3.org/1999/xlink" x="0px" y="0px"
	 viewBox="0 0 58 40" style="enable-background:new 0 0 58 40;" xml:space="preserve">
<style type="text/css">
	.st0{fill:#0DB14B;}
</style>
<title>arrow</title>
<path class="st0" d="M57.5,18.7l-16-18c-0.7-0.8-2-0.9-2.8-0.1c0,0,0,0,0,0c-0.8,0.8-0.8,2-0.1,2.8l13,14.7H2c-1.1,0-2,0.9-2,2
	s0.9,2,2,2h49.6l-13,14.7c-0.7,0.8-0.6,2.1,0.1,2.8c0.8,0.7,2.1,0.7,2.8-0.1c0,0,0,0,0,0l16-18C58.2,20.6,58.2,19.4,57.5,18.7z"/>
</svg>
