<svg id="Layer_1" data-name="Layer 1" xmlns="http://www.w3.org/2000/svg" viewBox="0 0 583.79 113.97"><defs><style>.cls-1{font-size:98.57px;font-family:Gravity-Bold, Gravity;font-weight:700;letter-spacing:-0.03em;}.cls-1,.cls-10{fill:#0db14b;}.cls-2{letter-spacing:-0.02em;}.cls-3{letter-spacing:-0.03em;}.cls-4{letter-spacing:-0.04em;}.cls-5{letter-spacing:-0.02em;}.cls-6{letter-spacing:-0.02em;}.cls-7{letter-spacing:-0.03em;}.cls-8{letter-spacing:-0.01em;}.cls-9{letter-spacing:-0.01em;}.cls-11{fill:#fff;}</style></defs><title>gopher_groc_logo</title><text class="cls-1" transform="translate(87.52 86.36)">G<tspan class="cls-2" x="75.96" y="0">o</tspan><tspan class="cls-3" x="132.74" y="0">G</tspan><tspan class="cls-4" x="208.2" y="0">r</tspan><tspan class="cls-5" x="242.54" y="0">o</tspan><tspan class="cls-6" x="299.38" y="0">c</tspan><tspan class="cls-7" x="351.01" y="0">e</tspan><tspan class="cls-8" x="404.95" y="0">r</tspan><tspan class="cls-9" x="442.06" y="0">y</tspan></text><path class="cls-10" d="M183.26,231.54c14.21,17.62-8.05,50.91-17,56.74-1.92,1.25-4.85,3.15-8.51,2.84-3.89-.33-4.75-2.84-8.51-2.84s-4.62,2.5-8.51,2.84c-3.67.32-6.59-1.59-8.51-2.84-9-5.85-31.19-39.16-17-56.74,5.87-7.29,18.46-12.46,25.38-8.67,3.47,1.9,4.83,5.67,8.51,5.67s5.07-3.76,8.51-5.67C164.53,219,177.31,224.17,183.26,231.54Z" transform="translate(-110.56 -201.47)"/><ellipse class="cls-11" cx="46.2" cy="56.75" rx="4.39" ry="8.86"/><ellipse class="cls-11" cx="30.71" cy="56.75" rx="4.18" ry="8.43"/><path class="cls-10" d="M130.92,201.82a1.09,1.09,0,0,0-.72.72s-2,7.83,3.3,13.09,13.09,3.3,13.09,3.3a1.09,1.09,0,0,0,.72-.72s2-7.83-3.3-13.09S130.92,201.82,130.92,201.82Z" transform="translate(-110.56 -201.47)"/><path class="cls-10" d="M167.53,201.82a1.09,1.09,0,0,1,.72.72s2,7.83-3.3,13.09-13.09,3.3-13.09,3.3a1.09,1.09,0,0,1-.72-.72s-2-7.83,3.3-13.09S167.53,201.82,167.53,201.82Z" transform="translate(-110.56 -201.47)"/></svg>